<svg width="58" height="31" viewBox="0 0 58 31" fill="none" xmlns="http://www.w3.org/2000/svg">
<path d="M26.196 11.0938H19.9744C19.8608 10.2888 19.6288 9.57386 19.2784 8.94886C18.928 8.31439 18.4782 7.77462 17.929 7.32955C17.3797 6.88447 16.7453 6.54356 16.0256 6.30682C15.3153 6.07008 14.5436 5.9517 13.7102 5.9517C12.2045 5.9517 10.893 6.32576 9.77557 7.07386C8.65814 7.8125 7.79167 8.89205 7.17614 10.3125C6.56061 11.7235 6.25284 13.4375 6.25284 15.4545C6.25284 17.5284 6.56061 19.2708 7.17614 20.6818C7.80114 22.0928 8.67235 23.1581 9.78977 23.8778C10.9072 24.5975 12.1998 24.9574 13.6676 24.9574C14.4915 24.9574 15.2538 24.8485 15.9545 24.6307C16.6648 24.4129 17.2945 24.0956 17.8438 23.679C18.393 23.2528 18.8475 22.7367 19.2074 22.1307C19.5767 21.5246 19.8324 20.8333 19.9744 20.0568L26.196 20.0852C26.035 21.4205 25.6326 22.7083 24.9886 23.9489C24.3542 25.1799 23.4972 26.2831 22.4176 27.2585C21.3475 28.2244 20.0691 28.9915 18.5824 29.5597C17.1051 30.1184 15.4337 30.3977 13.5682 30.3977C10.9735 30.3977 8.65341 29.8106 6.60795 28.6364C4.57197 27.4621 2.96212 25.7623 1.77841 23.5369C0.604167 21.3116 0.0170455 18.6174 0.0170455 15.4545C0.0170455 12.2822 0.613636 9.58333 1.80682 7.35795C3 5.13258 4.61932 3.4375 6.66477 2.27273C8.71023 1.09848 11.0114 0.511363 13.5682 0.511363C15.2538 0.511363 16.8163 0.748105 18.2557 1.22159C19.7045 1.69508 20.9877 2.38636 22.1051 3.29545C23.2225 4.19507 24.1316 5.29829 24.8324 6.60511C25.5426 7.91193 25.9972 9.40814 26.196 11.0938ZM35.8622 0.90909L42.8935 23.0114H43.1634L50.2088 0.90909H57.027L46.9986 30H39.0724L29.0298 0.90909H35.8622Z" fill="#FF7A8A"/>
</svg>
