<svg width="63" height="45" viewBox="0 0 63 45" fill="none" xmlns="http://www.w3.org/2000/svg">
<path d="M3 19.5C1.34315 19.5 0 20.8431 0 22.5C0 24.1569 1.34315 25.5 3 25.5V19.5ZM62.1213 24.6213C63.2929 23.4497 63.2929 21.5503 62.1213 20.3787L43.0294 1.2868C41.8579 0.115224 39.9584 0.115224 38.7868 1.2868C37.6152 2.45837 37.6152 4.35786 38.7868 5.52944L55.7574 22.5L38.7868 39.4706C37.6152 40.6421 37.6152 42.5416 38.7868 43.7132C39.9584 44.8848 41.8579 44.8848 43.0294 43.7132L62.1213 24.6213ZM3 25.5H60V19.5H3V25.5Z" fill="white"/>
</svg>
